<svg width="32" height="32" viewBox="0 0 32 32" fill="none" xmlns="http://www.w3.org/2000/svg">
  <!-- Background -->
  <rect width="32" height="32" rx="6" fill="#1e293b"/>
  
  <!-- Castle Base -->
  <rect x="4" y="20" width="24" height="8" fill="#d4af37"/>
  
  <!-- Left Tower -->
  <rect x="4" y="12" width="6" height="8" fill="#d4af37"/>
  <rect x="5" y="12" width="1" height="3" fill="#1e293b"/>
  <rect x="7" y="12" width="1" height="3" fill="#1e293b"/>
  <rect x="9" y="12" width="1" height="3" fill="#1e293b"/>
  
  <!-- Right Tower -->
  <rect x="22" y="12" width="6" height="8" fill="#d4af37"/>
  <rect x="23" y="12" width="1" height="3" fill="#1e293b"/>
  <rect x="25" y="12" width="1" height="3" fill="#1e293b"/>
  <rect x="27" y="12" width="1" height="3" fill="#1e293b"/>
  
  <!-- Center Tower -->
  <rect x="13" y="8" width="6" height="12" fill="#d4af37"/>
  <rect x="14" y="8" width="1" height="4" fill="#1e293b"/>
  <rect x="16" y="8" width="1" height="4" fill="#1e293b"/>
  <rect x="18" y="8" width="1" height="4" fill="#1e293b"/>
  
  <!-- Center Spire -->
  <polygon points="16,4 14,8 18,8" fill="#d4af37"/>
  
  <!-- Castle Details -->
  <rect x="6" y="22" width="2" height="4" fill="#1e293b"/>
  <rect x="14" y="22" width="4" height="4" fill="#1e293b"/>
  <rect x="24" y="22" width="2" height="4" fill="#1e293b"/>
  
  <!-- Imperial Eagle -->
  <g transform="translate(16,17) scale(0.3)">
    <!-- Eagle body -->
    <ellipse cx="0" cy="0" rx="8" ry="4" fill="#1e293b"/>
    <!-- Eagle wings -->
    <path d="M-8,-2 L-12,-4 L-10,-1 L-6,1 Z" fill="#1e293b"/>
    <path d="M8,-2 L12,-4 L10,-1 L6,1 Z" fill="#1e293b"/>
    <!-- Eagle head -->
    <circle cx="0" cy="-3" r="2" fill="#1e293b"/>
    <!-- Eagle tail -->
    <path d="M-2,4 L2,4 L0,8 Z" fill="#1e293b"/>
  </g>
</svg> 